<?xml version="1.0" encoding="UTF-8" standalone="no"?>
<!-- Created with Inkscape (http://www.inkscape.org/) -->

<svg
   version="1.1"
   id="svg1700"
   width="829"
   height="246"
   viewBox="0 0 829 246"
   sodipodi:docname="KnowGoLogo.svg"
   inkscape:export-filename="KnowGoLogo1.svg"
   inkscape:export-xdpi="96"
   inkscape:export-ydpi="96"
   xmlns:inkscape="http://www.inkscape.org/namespaces/inkscape"
   xmlns:sodipodi="http://sodipodi.sourceforge.net/DTD/sodipodi-0.dtd"
   xmlns="http://www.w3.org/2000/svg"
   xmlns:svg="http://www.w3.org/2000/svg">
  <defs
     id="defs1704" />
  <sodipodi:namedview
     id="namedview1702"
     pagecolor="#ffffff"
     bordercolor="#000000"
     borderopacity="0.25"
     inkscape:showpageshadow="2"
     inkscape:pageopacity="0.0"
     inkscape:pagecheckerboard="0"
     inkscape:deskcolor="#d1d1d1"
     showgrid="false" />
  <g
     inkscape:groupmode="layer"
     inkscape:label="Image"
     id="g1706">
    <g
       id="g4023"
       transform="translate(0.34730011,0.59526905)">
      <path
         style="fill:#afc6d5"
         d="m 147.15789,190 c 0,-1.375 0.22698,-1.9375 0.50439,-1.25 0.27741,0.6875 0.27741,1.8125 0,2.5 -0.27741,0.6875 -0.50439,0.125 -0.50439,-1.25 z m 82.27983,-25.5 c -5.4e-4,-14.85 0.13863,-21.0644 0.30926,-13.80979 0.17063,7.25462 0.17107,19.40462 9.7e-4,27 -0.17009,7.59539 -0.3097,1.65979 -0.31023,-13.19021 z m 121.64123,-8.08333 c 0.048,-1.16495 0.28494,-1.4019 0.60416,-0.60417 0.28887,0.72187 0.25335,1.58437 -0.0789,1.91667 -0.33229,0.33229 -0.56864,-0.25834 -0.52522,-1.3125 z m 23.116,-4.91667 c 0.0204,-1.65 0.2445,-2.20394 0.49804,-1.23097 0.25354,0.97297 0.23687,2.32297 -0.0371,3 -0.27393,0.67703 -0.48137,-0.11903 -0.46099,-1.76903 z m -101.116,-7.08333 c 0.048,-1.16495 0.28494,-1.4019 0.60416,-0.60417 0.28887,0.72187 0.25335,1.58437 -0.0789,1.91667 -0.33229,0.33229 -0.56864,-0.25834 -0.52522,-1.3125 z M 109,121.62244 c 0,-0.20765 0.7875,-0.99515 1.75,-1.75 1.58606,-1.24387 1.62143,-1.2085 0.37756,0.37756 C 109.82119,121.91575 109,122.44548 109,121.62244 Z m 100.25,-1.31177 c 0.9625,-0.25152 2.5375,-0.25152 3.5,0 0.9625,0.25153 0.175,0.45733 -1.75,0.45733 -1.925,0 -2.7125,-0.2058 -1.75,-0.45733 z m 113,0 c 0.9625,-0.25152 2.5375,-0.25152 3.5,0 0.9625,0.25153 0.175,0.45733 -1.75,0.45733 -1.925,0 -2.7125,-0.2058 -1.75,-0.45733 z m 132.01903,-4.00366 c 0.97297,-0.25354 2.32297,-0.23687 3,0.037 0.67703,0.27393 -0.11903,0.48137 -1.76903,0.46099 -1.65,-0.0204 -2.20394,-0.2445 -1.23097,-0.49804 z M 132,99.622445 c 0,-0.207656 0.7875,-0.995156 1.75,-1.75 1.58606,-1.243871 1.62143,-1.208501 0.37756,0.377555 C 132.82119,99.915748 132,100.44548 132,99.622445 Z M 113.95821,87.75 C 118.10217,83.33481 119,82.540906 119,83.291792 c 0,0.160486 -2.1375,2.297986 -4.75,4.75 L 109.5,92.5 Z M 47,75.622445 c 0,-0.207656 0.7875,-0.995156 1.75,-1.75 C 50.336056,72.628574 50.371426,72.663944 49.127555,74.25 47.821186,75.915748 47,76.445479 47,75.622445 Z M 64.872445,74.25 C 63.628574,72.663944 63.663944,72.628574 65.25,73.872445 c 0.9625,0.754844 1.75,1.542344 1.75,1.75 0,0.823034 -0.821186,0.293303 -2.127555,-1.372445 z"
         id="path4037" />
      <path
         style="fill:#f9ae92"
         d="m 594.8125,202.31689 c 0.72187,-0.28887 1.58438,-0.25335 1.91667,0.0789 0.33229,0.33229 -0.25834,0.56864 -1.3125,0.52522 -1.16495,-0.048 -1.4019,-0.28494 -0.60417,-0.60416 z m 14.9375,0.0208 c 0.6875,-0.27741 1.8125,-0.27741 2.5,0 0.6875,0.27741 0.125,0.50439 -1.25,0.50439 -1.375,0 -1.9375,-0.22698 -1.25,-0.50439 z m 100.0625,-0.0208 c 0.72187,-0.28887 1.58438,-0.25335 1.91667,0.0789 0.33229,0.33229 -0.25834,0.56864 -1.3125,0.52522 -1.16495,-0.048 -1.4019,-0.28494 -0.60417,-0.60416 z m 13,0 c 0.72187,-0.28887 1.58438,-0.25335 1.91667,0.0789 0.33229,0.33229 -0.25834,0.56864 -1.3125,0.52522 -1.16495,-0.048 -1.4019,-0.28494 -0.60417,-0.60416 z M 749,191.62244 c 0,-0.20765 0.7875,-0.99515 1.75,-1.75 1.58606,-1.24387 1.62143,-1.2085 0.37756,0.37756 C 749.82119,191.91575 749,192.44548 749,191.62244 Z M 554.46241,182.75 549.5,177.5 l 5.25,4.96241 c 4.87839,4.61116 5.7086,5.53759 4.96241,5.53759 -0.15818,0 -2.52068,-2.3625 -5.25,-5.25 z M 754,186.62244 c 0,-0.20765 0.7875,-0.99515 1.75,-1.75 1.58606,-1.24387 1.62143,-1.2085 0.37756,0.37756 C 754.82119,186.91575 754,187.44548 754,186.62244 Z m -38.75,-4.31177 c 0.9625,-0.25152 2.5375,-0.25152 3.5,0 0.9625,0.25153 0.175,0.45733 -1.75,0.45733 -1.925,0 -2.7125,-0.2058 -1.75,-0.45733 z m -114.48209,-2.0354 c 1.79735,-0.22256 4.49735,-0.21797 6,0.0102 1.50265,0.22818 0.0321,0.41027 -3.26791,0.40466 -3.3,-0.006 -4.52944,-0.1923 -2.73209,-0.41486 z m 23.22754,-15.07161 0.49545,-12.70366 0.28773,11.91682 c 0.15825,6.55425 -0.0647,12.2709 -0.49545,12.70366 -0.43075,0.43277 -0.56023,-4.9298 -0.28773,-11.91682 z M 696.92431,174.25 694.5,171.5 l 2.75,2.42431 c 1.5125,1.33338 2.75,2.57088 2.75,2.75 0,0.78428 -0.8098,0.14598 -3.07569,-2.42431 z M 666.32007,152 c 0,-3.575 0.1815,-5.0375 0.40333,-3.25 0.22182,1.7875 0.22182,4.7125 0,6.5 -0.22183,1.7875 -0.40333,0.325 -0.40333,-3.25 z M 767.232,151 c 0,-1.925 0.2058,-2.7125 0.45733,-1.75 0.25152,0.9625 0.25152,2.5375 0,3.5 -0.25153,0.9625 -0.45733,0.175 -0.45733,-1.75 z M 535.34281,136.5 c 0.004,-4.4 0.17944,-6.07561 0.39069,-3.72357 0.21124,2.35204 0.20827,5.95204 -0.007,8 -0.21487,2.04796 -0.38771,0.12357 -0.38408,-4.27643 z m 23.9432,0 c 0.008,-2.75 0.20172,-3.75631 0.43157,-2.23625 0.22986,1.52006 0.22371,3.77006 -0.0136,5 -0.23736,1.22994 -0.42542,-0.0137 -0.41792,-2.76375 z M 695,130.68709 c 0,-0.1721 1.4625,-1.6346 3.25,-3.25 l 3.25,-2.93709 -2.93709,3.25 C 695.82513,130.77946 695,131.45965 695,130.68709 Z M 735.87244,128.25 c -1.24387,-1.58606 -1.2085,-1.62143 0.37756,-0.37756 0.9625,0.75485 1.75,1.54235 1.75,1.75 0,0.82304 -0.82119,0.29331 -2.12756,-1.37244 z m -21.60869,-7.96758 c 1.52006,-0.22986 3.77006,-0.22371 5,0.0136 1.22994,0.23736 -0.0137,0.42542 -2.76375,0.41792 -2.75,-0.008 -3.75631,-0.20172 -2.23625,-0.43157 z M 751.45295,113.75 747.5,109.5 l 4.25,3.95295 c 2.3375,2.17412 4.25,4.08662 4.25,4.25 0,0.75658 -0.87085,-4.9e-4 -4.54705,-3.95295 z M 572,104.5 c 1.86578,-1.925 3.61733,-3.5 3.89233,-3.5 0.275,0 -1.02655,1.575 -2.89233,3.5 -1.86578,1.925 -3.61733,3.5 -3.89233,3.5 -0.275,0 1.02655,-1.575 2.89233,-3.5 z m 135.8125,-4.18311 c 0.72187,-0.28887 1.58438,-0.25335 1.91667,0.0789 0.33229,0.3323 -0.25834,0.56864 -1.3125,0.52522 -1.16495,-0.048 -1.4019,-0.28494 -0.60417,-0.60416 z M 554,89.5 c 1.29175,-1.375 2.57363,-2.5 2.84863,-2.5 0.275,0 -0.55688,1.125 -1.84863,2.5 -1.29175,1.375 -2.57363,2.5 -2.84863,2.5 -0.275,0 0.55688,-1.125 1.84863,-2.5 z m 47.76166,1.792739 c 1.24391,-0.239193 3.04391,-0.230112 4,0.02018 0.95609,0.250292 -0.0617,0.445996 -2.26166,0.434897 -2.2,-0.0111 -2.98225,-0.215885 -1.73834,-0.455077 z M 640.15789,86 c 0,-1.375 0.22698,-1.9375 0.50439,-1.25 0.27741,0.6875 0.27741,1.8125 0,2.5 -0.27741,0.6875 -0.50439,0.125 -0.50439,-1.25 z M 596.25,69.310674 c 0.9625,-0.251527 2.5375,-0.251527 3.5,0 0.9625,0.251528 0.175,0.457323 -1.75,0.457323 -1.925,0 -2.7125,-0.205795 -1.75,-0.457323 z m 11.01903,-0.0037 c 0.97297,-0.253543 2.32297,-0.236869 3,0.03705 0.67703,0.273923 -0.11903,0.481368 -1.76903,0.460988 -1.65,-0.02038 -2.20394,-0.244498 -1.23097,-0.498042 z"
         id="path4035" />
      <path
         style="fill:#8eb1c7"
         d="m 328.8125,202.31689 c 0.72187,-0.28887 1.58438,-0.25335 1.91667,0.0789 0.33229,0.33229 -0.25834,0.56864 -1.3125,0.52522 -1.16495,-0.048 -1.4019,-0.28494 -0.60417,-0.60416 z M 420.87244,198.25 c -1.24387,-1.58606 -1.2085,-1.62143 0.37756,-0.37756 0.9625,0.75485 1.75,1.54235 1.75,1.75 0,0.82304 -0.82119,0.29331 -2.12756,-1.37244 z M 64,198.62244 c 0,-0.20765 0.7875,-0.99515 1.75,-1.75 1.586056,-1.24387 1.621426,-1.2085 0.377555,0.37756 C 64.821186,198.91575 64,199.44548 64,198.62244 Z M 45.46758,136 c 0,-31.075 0.126803,-43.7875 0.281783,-28.25 0.154981,15.5375 0.154981,40.9625 0,56.5 -0.15498,15.5375 -0.281783,2.825 -0.281783,-28.25 z M 68.221938,175.93709 68,160.37418 71.25,157.43709 74.5,154.5 l -2.722749,3.02627 c -2.682024,2.98101 -2.727315,3.25772 -3.028062,18.5 L 68.443876,191.5 Z M 165.45571,151.5 c 2.7e-4,-22 0.13226,-30.85753 0.29331,-19.6834 0.16105,11.17413 0.16083,29.17413 -4.9e-4,40 -0.16132,10.82587 -0.29309,1.6834 -0.29282,-20.3166 z M 359,188.5 c 1.29175,-1.375 2.57363,-2.5 2.84863,-2.5 0.275,0 -0.55688,1.125 -1.84863,2.5 -1.29175,1.375 -2.57363,2.5 -2.84863,2.5 -0.275,0 0.55688,-1.125 1.84863,-2.5 z m -36.75,-6.18933 c 0.9625,-0.25152 2.5375,-0.25152 3.5,0 0.9625,0.25153 0.175,0.45733 -1.75,0.45733 -1.925,0 -2.7125,-0.2058 -1.75,-0.45733 z M 273.19495,154.5 c 0.0204,-1.65 0.2445,-2.20394 0.49804,-1.23097 0.25354,0.97297 0.23687,2.32297 -0.0371,3 -0.27393,0.67703 -0.48137,-0.11903 -0.46099,-1.76903 z m 22.05723,-3 c 0.0111,-2.2 0.21589,-2.98225 0.45508,-1.73834 0.23919,1.24391 0.23011,3.04391 -0.0202,4 -0.25029,0.95609 -0.446,-0.0617 -0.4349,-2.26166 z m -22.05723,-3 c 0.0204,-1.65 0.2445,-2.20394 0.49804,-1.23097 0.25354,0.97297 0.23687,2.32297 -0.0371,3 -0.27393,0.67703 -0.48137,-0.11903 -0.46099,-1.76903 z M 68.436742,107 c 0,-14.575 0.139795,-20.5375 0.310654,-13.25 0.17086,7.2875 0.17086,19.2125 0,26.5 -0.170859,7.2875 -0.310654,1.325 -0.310654,-13.25 z M 115.5,115 c 2.14824,-2.2 4.1309,-4 4.4059,-4 0.275,0 -1.25766,1.8 -3.4059,4 -2.14824,2.2 -4.1309,4 -4.4059,4 -0.275,0 1.25766,-1.8 3.4059,-4 z M 97,104.5 C 103.85849,97.625 109.69499,92 109.96999,92 110.24499,92 104.85849,97.625 98,104.5 91.141507,111.375 85.305012,117 85.030012,117 84.755012,117 90.141507,111.375 97,104.5 Z m 261.92431,9.75 -2.42431,-2.75 2.75,2.42431 c 2.57029,2.26589 3.20859,3.07569 2.42431,3.07569 -0.17912,0 -1.41662,-1.2375 -2.75,-2.75 z m 161.15464,-0.83333 c 0.048,-1.16495 0.28494,-1.4019 0.60416,-0.60417 0.28887,0.72187 0.25335,1.58437 -0.0789,1.91667 -0.33229,0.33229 -0.56864,-0.25834 -0.52522,-1.3125 z M 167,106.62244 c 0,-0.20765 0.7875,-0.99515 1.75,-1.75 1.58606,-1.24387 1.62143,-1.2085 0.37756,0.37756 C 167.82119,106.91575 167,107.44548 167,106.62244 Z M 138.5,93 c 2.14824,-2.2 4.1309,-4 4.4059,-4 0.275,0 -1.25766,1.8 -3.4059,4 -2.14824,2.2 -4.1309,4 -4.4059,4 -0.275,0 1.25766,-1.8 3.4059,-4 z"
         id="path4033" />
      <path
         style="fill:#fb8d62"
         d="m 599.75,202.2766 c 1.7875,-0.22182 4.7125,-0.22182 6.5,0 1.7875,0.22183 0.325,0.40333 -3.25,0.40333 -3.575,0 -5.0375,-0.1815 -3.25,-0.40333 z m 114.5,0.007 c 1.5125,-0.22913 3.9875,-0.22913 5.5,0 1.5125,0.22912 0.275,0.41659 -2.75,0.41659 -3.025,0 -4.2625,-0.18747 -2.75,-0.41659 z M 680.94617,188.25 677.5,184.5 l 3.75,3.44617 c 3.49042,3.20761 4.20979,4.05383 3.44617,4.05383 -0.16711,0 -1.85461,-1.6875 -3.75,-3.75 z M 648.42476,162 c 0,-11.825 0.14466,-16.6625 0.32145,-10.75 0.1768,5.9125 0.1768,15.5875 0,21.5 -0.17679,5.9125 -0.32145,1.075 -0.32145,-10.75 z M 736,174.5 c 1.29175,-1.375 2.57363,-2.5 2.84863,-2.5 0.275,0 -0.55688,1.125 -1.84863,2.5 -1.29175,1.375 -2.57363,2.5 -2.84863,2.5 -0.275,0 0.55688,-1.125 1.84863,-2.5 z m -164.12756,-6.25 c -1.24387,-1.58606 -1.2085,-1.62143 0.37756,-0.37756 1.66575,1.30637 2.19548,2.12756 1.37244,2.12756 -0.20765,0 -0.99515,-0.7875 -1.75,-1.75 z M 688.28601,151.5 c 0.008,-2.75 0.20172,-3.75631 0.43157,-2.23625 0.22986,1.52006 0.22371,3.77006 -0.0136,5 -0.23736,1.22994 -0.42542,-0.0137 -0.41792,-2.76375 z m 56.79294,-0.0833 c 0.048,-1.16495 0.28494,-1.4019 0.60416,-0.60417 0.28887,0.72187 0.25335,1.58437 -0.0789,1.91667 -0.33229,0.33229 -0.56864,-0.25834 -0.52522,-1.3125 z m -186,-21 c 0.048,-1.16495 0.28494,-1.4019 0.60416,-0.60417 0.28887,0.72187 0.25335,1.58437 -0.0789,1.91667 -0.33229,0.33229 -0.56864,-0.25834 -0.52522,-1.3125 z M 681,114.5 c 1.86578,-1.925 3.61733,-3.5 3.89233,-3.5 0.275,0 -1.02655,1.575 -2.89233,3.5 -1.86578,1.925 -3.61733,3.5 -3.89233,3.5 -0.275,0 1.02655,-1.575 2.89233,-3.5 z M 549,95.622445 c 0,-0.207656 0.7875,-0.995156 1.75,-1.75 1.58606,-1.243871 1.62143,-1.208501 0.37756,0.377555 C 549.82119,95.915748 549,96.445479 549,95.622445 Z m 86,0 c 0,-0.207656 0.7875,-0.995156 1.75,-1.75 1.58606,-1.243871 1.62143,-1.208501 0.37756,0.377555 C 635.82119,95.915748 635,96.445479 635,95.622445 Z m -37.1875,-4.305559 c 0.72187,-0.288871 1.58438,-0.253344 1.91667,0.07895 0.33229,0.332292 -0.25834,0.568641 -1.3125,0.52522 -1.16495,-0.04798 -1.4019,-0.284941 -0.60417,-0.604167 z m 4.45653,-22.009877 c 0.97297,-0.253543 2.32297,-0.236869 3,0.03705 0.67703,0.273923 -0.11903,0.481368 -1.76903,0.460988 -1.65,-0.02038 -2.20394,-0.244498 -1.23097,-0.498042 z"
         id="path4031" />
      <path
         style="fill:#fd713a"
         d="M 586,200.45283 C 567.45802,195.26913 551.5986,182.55468 543.19821,166.13879 537.5604,155.12149 536.5,150.35019 536.5,136 c 0,-10.13864 0.41898,-13.82236 2.21792,-19.5 3.15151,-9.94655 8.68459,-18.789618 16.85762,-26.94218 12.83341,-12.80126 25.79181,-18.55431 43.55467,-19.336655 16.70389,-0.735704 31.79042,2.853312 37.97,9.032887 4.27046,4.270466 4.07881,9.766924 -0.50021,14.345948 -4.06544,4.065441 -5.73757,4.163503 -15.21512,0.892292 -19.46458,-6.718267 -37.13779,-2.90562 -50.1096,10.810158 -8.94416,9.45713 -12.91559,20.61336 -11.99576,33.69755 1.22647,17.44616 12.22927,33.0063 27.72048,39.2023 4.47197,1.78864 7.55607,2.20631 16.5,2.23453 6.05,0.0191 13.3625,-0.56627 16.25,-1.3008 L 625,177.80052 V 165.40026 153 h -9.53212 c -11.12797,0 -15.6285,-1.47614 -17.90146,-5.87156 -2.07623,-4.01498 -1.97049,-6.95349 0.38949,-10.82397 2.90023,-4.7565 6.83291,-5.50714 26.87845,-5.13032 l 17.33436,0.32585 2.91564,3.26578 2.91564,3.26577 v 23.57986 c 0,27.03603 0.0472,26.86798 -8.9125,31.74445 -11.07818,6.0295 -18.46803,7.84583 -33.5875,8.25537 -10.50093,0.28444 -15.37463,-0.005 -19.5,-1.1584 z m 113.89343,-0.76781 c -15.82509,-5.72867 -27.18136,-18.17508 -31.41556,-34.43131 -3.09952,-11.89983 -1.42389,-27.50651 4.12999,-38.46657 3.13007,-6.17688 12.28529,-16.05245 17.97205,-19.38612 27.98599,-16.405817 63.6151,-3.12365 74.0336,27.59898 1.3738,4.05115 1.86513,8.39771 1.86513,16.5 0,12.41144 -1.50929,18.29329 -7.07962,27.58993 -4.69177,7.83036 -12.12989,14.40594 -21.13088,18.68049 -7.32336,3.47785 -8.26849,3.66848 -19.72998,3.9795 -10.68051,0.28983 -12.78324,0.057 -18.64473,-2.0649 z m 28.75245,-19.50436 c 6.095,-3.10944 9.6442,-6.46032 12.60542,-11.90105 7.33975,-13.48555 4.35055,-32.47283 -6.58604,-41.83414 -14.01696,-11.99799 -36.02737,-6.44124 -43.7872,11.05453 -2.95336,6.65882 -3.16715,18.69614 -0.47008,26.46799 2.52984,7.28996 10.40894,15.28168 17.20724,17.45318 6.36794,2.03404 15.68982,1.48418 21.03066,-1.24051 z"
         id="path4029" />
      <path
         style="fill:#5c90b2"
         d="m 321.26375,202.28242 c 1.52006,-0.22986 3.77006,-0.22371 5,0.0136 1.22994,0.23736 -0.0138,0.42542 -2.76375,0.41792 -2.75,-0.008 -3.75631,-0.20172 -2.23625,-0.43157 z M 126.87244,197.25 c -1.24387,-1.58606 -1.2085,-1.62143 0.37756,-0.37756 0.9625,0.75485 1.75,1.54235 1.75,1.75 0,0.82304 -0.82119,0.29331 -2.12756,-1.37244 z M 183,198.62244 c 0,-0.20765 0.7875,-0.99515 1.75,-1.75 1.58606,-1.24387 1.62143,-1.2085 0.37756,0.37756 C 183.82119,198.91575 183,199.44548 183,198.62244 Z M 289.87244,190.25 c -1.24387,-1.58606 -1.2085,-1.62143 0.37756,-0.37756 0.9625,0.75485 1.75,1.54235 1.75,1.75 0,0.82304 -0.82119,0.29331 -2.12756,-1.37244 z M 187.4357,165.5 c 5.7e-4,-14.3 0.14102,-20.01094 0.31211,-12.69097 0.17108,7.31996 0.17062,19.01996 -10e-4,26 -0.17166,6.98003 -0.31164,0.99097 -0.31107,-13.30903 z m 97.43674,19.75 c -1.24387,-1.58606 -1.2085,-1.62143 0.37756,-0.37756 0.9625,0.75485 1.75,1.54235 1.75,1.75 0,0.82304 -0.82119,0.29331 -2.12756,-1.37244 z M 343,174.5 c 1.29175,-1.375 2.57363,-2.5 2.84863,-2.5 0.275,0 -0.55688,1.125 -1.84863,2.5 -1.29175,1.375 -2.57363,2.5 -2.84863,2.5 -0.275,0 0.55688,-1.125 1.84863,-2.5 z M 77.5,151 c 2.148243,-2.2 4.130896,-4 4.405896,-4 0.275,0 -1.257653,1.8 -3.405896,4 -2.148243,2.2 -4.130896,4 -4.405896,4 -0.275,0 1.257653,-1.8 3.405896,-4 z m 173.65789,-14 c 0,-1.375 0.22698,-1.9375 0.50439,-1.25 0.27741,0.6875 0.27741,1.8125 0,2.5 -0.27741,0.6875 -0.50439,0.125 -0.50439,-1.25 z M 76.5,125 c 4.374194,-4.4 8.17808,-8 8.45308,-8 0.275,0 -3.078886,3.6 -7.45308,8 -4.374194,4.4 -8.17808,8 -8.45308,8 -0.275,0 3.078886,-3.6 7.45308,-8 z m 26.5,2.05902 c 0,-0.51754 0.44485,-1.21592 0.98855,-1.55194 0.56686,-0.35034 0.7345,0.0511 0.39301,0.94098 C 103.71677,128.18048 103,128.49745 103,127.05902 Z m 89,0.56342 c 0,-0.20765 0.7875,-0.99515 1.75,-1.75 1.58606,-1.24387 1.62143,-1.2085 0.37756,0.37756 C 192.82119,127.91575 192,128.44548 192,127.62244 Z M 187.15789,114 c 0,-1.375 0.22698,-1.9375 0.50439,-1.25 0.27741,0.6875 0.27741,1.8125 0,2.5 -0.27741,0.6875 -0.50439,0.125 -0.50439,-1.25 z M 189,114.68709 c 0,-0.1721 1.4625,-1.6346 3.25,-3.25 l 3.25,-2.93709 -2.93709,3.25 C 189.82513,114.77946 189,115.45965 189,114.68709 Z M 389.15789,113 c 0,-1.375 0.22698,-1.9375 0.50439,-1.25 0.27741,0.6875 0.27741,1.8125 0,2.5 -0.27741,0.6875 -0.50439,0.125 -0.50439,-1.25 z M 289,113.62244 c 0,-0.20765 0.7875,-0.99515 1.75,-1.75 1.58606,-1.24387 1.62143,-1.2085 0.37756,0.37756 C 289.82119,113.91575 289,114.44548 289,113.62244 Z M 123.95821,106.75 C 128.10217,102.33481 129,101.54091 129,102.29179 c 0,0.16049 -2.1375,2.29799 -4.75,4.75 L 119.5,111.5 Z m 59.91423,-1.5 c -1.24387,-1.58606 -1.2085,-1.62143 0.37756,-0.37756 1.66575,1.30637 2.19548,2.12756 1.37244,2.12756 -0.20765,0 -0.99515,-0.7875 -1.75,-1.75 z m 144.94006,-4.93311 c 0.72187,-0.28887 1.58438,-0.25335 1.91667,0.0789 0.33229,0.3323 -0.25834,0.56864 -1.3125,0.52522 -1.16495,-0.048 -1.4019,-0.28494 -0.60417,-0.60416 z M 55.75,71.337719 c 0.6875,-0.277412 1.8125,-0.277412 2.5,0 0.6875,0.277413 0.125,0.504386 -1.25,0.504386 -1.375,0 -1.9375,-0.226973 -1.25,-0.504386 z"
         id="path4027" />
      <path
         style="fill:#3f7da5"
         d="m 307,199.7162 c -8.42539,-3.05956 -13.40794,-6.27296 -19.71742,-12.71636 C 278.21684,177.74166 274,166.19601 274,150.63228 c 0,-37.72517 38.12904,-61.530946 72,-44.95302 37.38141,18.2961 36.98478,74.17961 -0.65336,92.05389 -7.41371,3.52075 -8.32281,3.7051 -19.80848,4.01677 -10.64457,0.28886 -12.79063,0.0534 -18.53816,-2.03372 z m 26.21249,-18.6959 c 7.04917,-2.63928 11.73777,-6.67915 15.27877,-13.16475 2.47809,-4.53881 2.98307,-6.72809 3.31123,-14.35555 0.32315,-7.51092 0.0169,-9.98294 -1.85091,-14.94089 -7.40823,-19.66447 -31.69818,-24.8716 -46.15223,-9.89384 -6.06566,6.28544 -8.24147,12.32282 -8.2294,22.83473 0.0131,11.42042 2.48903,17.56952 9.67611,24.03132 8.06749,7.25337 18.03099,9.20891 27.96643,5.48898 z M 52.378302,199.56308 C 45.703506,196.65805 46,199.61819 46,135.88325 V 78.211511 l 2.90121,-3.105756 C 51.426991,72.401897 52.475007,72 57,72 c 4.524993,0 5.573009,0.401897 8.09879,3.105755 L 68,78.211511 V 105.60576 C 68,120.67259 68.340625,133 68.756945,133 c 0.41632,0 12.90382,-12.1947 27.75,-27.09934 C 128.39523,73.886813 131.73657,71 136.90271,71 c 5.2733,0 9.55184,4.526285 9.55184,10.104944 0,3.751904 -0.60148,4.602547 -8.9856,12.70806 -4.94208,4.777848 -14.71614,14.236116 -21.72014,21.018366 l -12.73454,12.33136 20.07441,26.52855 c 23.13047,30.56717 23.90257,31.72922 23.90758,35.98199 0.007,6.10869 -8.4756,12.5351 -14.23056,10.78082 -3.71037,-1.13103 -5.16585,-2.82585 -25.93884,-30.20409 C 95.872537,155.8125 86.510083,144 86.021405,144 c -0.488679,0 -4.743409,3.64899 -9.454956,8.10886 L 68,160.21772 v 16.66863 c 0,18.56806 -0.460844,20.15478 -6.598574,22.71928 -4.061617,1.69706 -5.036651,1.69246 -9.023124,-0.0425 z m 119.999998,0.012 C 165.83347,196.70147 166,197.96209 166,151.29327 v -42.26172 l 2.91797,-3.26577 c 2.47938,-2.77491 3.59681,-3.26578 7.43434,-3.26578 6.14888,0 10.64769,4.09294 10.64769,9.68709 0,2.0971 0.29402,3.81291 0.65338,3.81291 0.35935,0 3.05816,-2.27435 5.99735,-5.05411 2.93919,-2.77977 7.93267,-6.24991 11.09663,-7.71144 4.9376,-2.28083 7.05814,-2.65238 14.96697,-2.62243 8.18567,0.031 9.85543,0.36275 14.95704,2.97182 14.43437,7.38201 17.73231,19.96768 17.14499,65.42905 -0.34903,27.01623 -0.48885,27.65475 -6.70095,30.60259 -2.81488,1.33574 -4.0704,1.41497 -7.26332,0.45835 -7.18679,-2.15321 -7.2892,-2.63612 -7.85209,-37.02604 L 229.5,132.5 l -2.74186,-4.66418 c -3.61382,-6.14747 -8.90545,-8.33863 -18.31389,-7.58341 -8.81444,0.70754 -14.879,4.40969 -18.38949,11.22601 -2.52791,4.90843 -2.56001,5.26805 -3.05476,34.22088 l -0.5,29.26033 -2.5,2.42421 c -3.1921,3.09533 -7.64873,3.93561 -11.6217,2.19122 z m 250.54129,-0.85027 c -3.15182,-2.12401 -4.35411,-4.89838 -18.09255,-41.75 -9.14704,-24.53579 -14.73731,-40.93018 -14.7717,-43.3205 -0.10824,-7.52219 5.37013,-12.54746 12.26806,-11.2534 1.84621,0.34635 4.26507,1.63534 5.37526,2.86442 1.11019,1.22908 6.37921,14.12655 11.70894,28.66105 11.36142,30.98331 11.11974,30.45534 12.3932,27.07364 0.51779,-1.375 2.83943,-7.675 5.15921,-14 9.25948,-25.24646 10.0395,-26.94839 13.06875,-28.51487 1.57956,-0.81682 4.21917,-1.48513 5.86582,-1.48513 5.50903,0 7.64927,3.2409 14.52839,22 9.28621,25.32312 8.59364,23.72608 9.5406,22 0.45262,-0.825 5.15197,-13.12828 10.44301,-27.34063 5.29103,-14.21235 10.04687,-26.63813 10.56852,-27.61285 1.4038,-2.62302 6.45409,-4.37619 10.44795,-3.62693 4.48018,0.84048 8.57695,5.61363 8.57695,9.99299 0,4.84931 -29.495,83.67283 -32.12427,85.8501 -4.41569,3.65657 -9.81178,3.46072 -14.32226,-0.51982 -1.90916,-1.68484 -4.54474,-8.08025 -10.5933,-25.70536 -4.4285,-12.90437 -8.20938,-23.62005 -8.40195,-23.81261 -0.19257,-0.19257 -3.8418,10.14055 -8.10941,22.96249 -4.26762,12.82194 -8.39413,24.29145 -9.17004,25.4878 -1.40458,2.16568 -6.03762,4.32482 -9.28011,4.32482 -0.93659,0 -3.22217,-1.02384 -5.07907,-2.27521 z"
         id="path4025" />
    </g>
  </g>
</svg>
