<?xml version="1.0" encoding="UTF-8" standalone="no"?>
<!-- Created with Inkscape (http://www.inkscape.org/) -->

<svg
   version="1.1"
   id="svg5668"
   width="1209"
   height="405"
   viewBox="0 0 1209 405"
   xmlns="http://www.w3.org/2000/svg"
   xmlns:svg="http://www.w3.org/2000/svg">
  <defs
     id="defs5672" />
  <g
     id="g5674">
    <g
       id="g6059">
      <path
         style="fill:#dde5ea"
         d="M 331.40499,336.75 329.5,334.5 l 2.25,1.90499 c 2.11444,1.79022 2.70524,2.59501 1.90499,2.59501 -0.18976,0 -1.20226,-1.0125 -2.25,-2.25 z M 921.5,275 c 0.99549,-1.1 2.03498,-2 2.30998,-2 0.275,0 -0.31449,0.9 -1.30998,2 -0.99549,1.1 -2.03498,2 -2.30998,2 -0.275,0 0.31449,-0.9 1.30998,-2 z m 102.3724,-0.75 c -1.2438,-1.58606 -1.2085,-1.62143 0.3776,-0.37756 0.9625,0.75485 1.75,1.54235 1.75,1.75 0,0.82304 -0.8212,0.29331 -2.1276,-1.37244 z M 431,274.62244 c 0,-0.20765 0.7875,-0.99515 1.75,-1.75 1.58606,-1.24387 1.62143,-1.2085 0.37756,0.37756 C 431.82119,274.91575 431,275.44548 431,274.62244 Z M 331.87244,271.25 c -1.24387,-1.58606 -1.2085,-1.62143 0.37756,-0.37756 1.66575,1.30637 2.19548,2.12756 1.37244,2.12756 -0.20765,0 -0.99515,-0.7875 -1.75,-1.75 z M 45,239.62244 c 0,-0.20765 0.7875,-0.99515 1.75,-1.75 1.586056,-1.24387 1.621426,-1.2085 0.377555,0.37756 C 45.821186,239.91575 45,240.44548 45,239.62244 Z m 988,-69.93535 c 0,-0.1721 1.4625,-1.6346 3.25,-3.25 l 3.25,-2.93709 -2.9371,3.25 c -2.7378,3.02946 -3.5629,3.70965 -3.5629,2.93709 z m 90.4371,-28.93709 -2.9371,-3.25 3.25,2.93709 c 3.0295,2.73778 3.7097,3.56291 2.9371,3.56291 -0.1721,0 -1.6346,-1.4625 -3.25,-3.25 z M 1025,139.5 c 1.2917,-1.375 2.5736,-2.5 2.8486,-2.5 0.275,0 -0.5569,1.125 -1.8486,2.5 -1.2917,1.375 -2.5736,2.5 -2.8486,2.5 -0.275,0 0.5569,-1.125 1.8486,-2.5 z M 935.40499,127.75 933.5,125.5 l 2.25,1.90499 c 2.11444,1.79022 2.70524,2.59501 1.90499,2.59501 -0.18976,0 -1.20226,-1.0125 -2.25,-2.25 z M 58,92.687091 c 0,-0.1721 1.4625,-1.6346 3.25,-3.25 L 64.5,86.5 61.562909,89.75 C 58.825128,92.779455 58,93.459652 58,92.687091 Z M 190.87244,91.25 C 189.62857,89.663944 189.66394,89.628574 191.25,90.872445 192.91575,92.178814 193.44548,93 192.62244,93 c -0.20765,0 -0.99515,-0.7875 -1.75,-1.75 z"
         id="path6073" />
      <path
         style="fill:#c9d7e1"
         d="m 422,246.62244 c 0,-0.20765 0.7875,-0.99515 1.75,-1.75 1.58606,-1.24387 1.62143,-1.2085 0.37756,0.37756 C 422.82119,246.91575 422,247.44548 422,246.62244 Z M 941.45848,182.5 c 2.3e-4,-23.65 0.13103,-33.18206 0.29066,-21.18235 0.15964,11.99971 0.15944,31.34971 -4.3e-4,43 -0.15986,11.65029 -0.29047,1.83235 -0.29023,-21.81765 z M 903.45804,182 c 0,-23.375 0.13089,-32.9375 0.29087,-21.25 0.15998,11.6875 0.15998,30.8125 0,42.5 -0.15998,11.6875 -0.29087,2.125 -0.29087,-21.25 z M 44.299664,132 c 0,-3.025 0.187466,-4.2625 0.41659,-2.75 0.229125,1.5125 0.229125,3.9875 0,5.5 -0.229124,1.5125 -0.41659,0.275 -0.41659,-2.75 z M 178.75,124.33772 c 0.6875,-0.27741 1.8125,-0.27741 2.5,0 0.6875,0.27741 0.125,0.50439 -1.25,0.50439 -1.375,0 -1.9375,-0.22698 -1.25,-0.50439 z m 75.51903,-2.03071 c 0.97297,-0.25354 2.32297,-0.23687 3,0.037 0.67703,0.27393 -0.11903,0.48137 -1.76903,0.46099 -1.65,-0.0204 -2.20394,-0.2445 -1.23097,-0.49804 z m 282,0 c 0.97297,-0.25354 2.32297,-0.23687 3,0.037 0.67703,0.27393 -0.11903,0.48137 -1.76903,0.46099 -1.65,-0.0204 -2.20394,-0.2445 -1.23097,-0.49804 z m 280,0 c 0.97297,-0.25354 2.32297,-0.23687 3,0.037 0.67703,0.27393 -0.11903,0.48137 -1.76903,0.46099 -1.65,-0.0204 -2.20394,-0.2445 -1.23097,-0.49804 z m 105,0 c 0.97297,-0.25354 2.32297,-0.23687 3,0.037 0.67703,0.27393 -0.11903,0.48137 -1.76903,0.46099 -1.65,-0.0204 -2.20394,-0.2445 -1.23097,-0.49804 z m 80.98097,0.004 c 0.9625,-0.25152 2.5375,-0.25152 3.5,0 0.9625,0.25153 0.175,0.45733 -1.75,0.45733 -1.925,0 -2.7125,-0.2058 -1.75,-0.45733 z"
         id="path6071" />
      <path
         style="fill:#b0c7d6"
         d="m 389.75,352.29427 c 1.2375,-0.23836 3.2625,-0.23836 4.5,0 1.2375,0.23835 0.225,0.43337 -2.25,0.43337 -2.475,0 -3.4875,-0.19502 -2.25,-0.43337 z m 613,0.0435 c 0.6875,-0.27741 1.8125,-0.27741 2.5,0 0.6875,0.27741 0.125,0.50439 -1.25,0.50439 -1.375,0 -1.9375,-0.22698 -1.25,-0.50439 z M 342.8125,305.31689 c 0.72187,-0.28887 1.58438,-0.25335 1.91667,0.0789 0.33229,0.33229 -0.25834,0.56864 -1.3125,0.52522 -1.16495,-0.048 -1.4019,-0.28494 -0.60417,-0.60416 z M 236.07895,272.41667 c 0.048,-1.16495 0.28494,-1.4019 0.60416,-0.60417 0.28887,0.72187 0.25335,1.58438 -0.0789,1.91667 -0.3323,0.33229 -0.56864,-0.25834 -0.52522,-1.3125 z M 389.25,258.31067 c 0.9625,-0.25152 2.5375,-0.25152 3.5,0 0.9625,0.25153 0.175,0.45733 -1.75,0.45733 -1.925,0 -2.7125,-0.2058 -1.75,-0.45733 z m 478.51166,-0.0179 c 1.24391,-0.23919 3.04391,-0.23011 4,0.0202 0.95609,0.25029 -0.0617,0.446 -2.26166,0.4349 -2.2,-0.0111 -2.98225,-0.21589 -1.73834,-0.45508 z m 197.48834,0.0179 c 0.9625,-0.25152 2.5375,-0.25152 3.5,0 0.9625,0.25153 0.175,0.45733 -1.75,0.45733 -1.925,0 -2.7125,-0.2058 -1.75,-0.45733 z M 844.40499,249.75 842.5,247.5 l 2.25,1.90499 c 1.2375,1.04774 2.25,2.06024 2.25,2.25 0,0.80025 -0.80479,0.20945 -2.59501,-1.90499 z m 190.46741,-4.5 c -1.2438,-1.58606 -1.2085,-1.62143 0.3776,-0.37756 0.9625,0.75485 1.75,1.54235 1.75,1.75 0,0.82304 -0.8212,0.29331 -2.1276,-1.37244 z M 58.8125,233.31689 c 0.721875,-0.28887 1.584375,-0.25335 1.916667,0.0789 0.332291,0.33229 -0.258334,0.56864 -1.3125,0.52522 -1.164943,-0.048 -1.4019,-0.28494 -0.604167,-0.60416 z m 739.26645,-5.90022 c 0.048,-1.16495 0.28494,-1.4019 0.60416,-0.60417 0.28887,0.72187 0.25335,1.58437 -0.0789,1.91667 -0.33229,0.33229 -0.56864,-0.25834 -0.52522,-1.3125 z m 105,-2 c 0.048,-1.16495 0.28494,-1.4019 0.60416,-0.60417 0.28887,0.72187 0.25335,1.58437 -0.0789,1.91667 -0.33229,0.33229 -0.56864,-0.25834 -0.52522,-1.3125 z m 244.99995,-14 c 0.048,-1.16495 0.285,-1.4019 0.6042,-0.60417 0.2889,0.72187 0.2534,1.58437 -0.079,1.91667 -0.3323,0.33229 -0.5687,-0.25834 -0.5253,-1.3125 z M 438.19495,206.5 c 0.0204,-1.65 0.2445,-2.20394 0.49804,-1.23097 0.25354,0.97297 0.23687,2.32297 -0.0371,3 -0.27393,0.67703 -0.48137,-0.11903 -0.46099,-1.76903 z M 1148.1579,201 c 0,-1.375 0.227,-1.9375 0.5044,-1.25 0.2774,0.6875 0.2774,1.8125 0,2.5 -0.2774,0.6875 -0.5044,0.125 -0.5044,-1.25 z M 358.5,167 c 0.99549,-1.1 2.03498,-2 2.30998,-2 0.275,0 -0.31449,0.9 -1.30998,2 -0.99549,1.1 -2.03498,2 -2.30998,2 -0.275,0 0.31449,-0.9 1.30998,-2 z M 331,142.62244 c 0,-0.20765 0.7875,-0.99515 1.75,-1.75 1.58606,-1.24387 1.62143,-1.2085 0.37756,0.37756 C 331.82119,142.91575 331,143.44548 331,142.62244 Z M 645.87244,132.25 c -1.24387,-1.58606 -1.2085,-1.62143 0.37756,-0.37756 1.66575,1.30637 2.19548,2.12756 1.37244,2.12756 -0.20765,0 -0.99515,-0.7875 -1.75,-1.75 z M 382.25,119.28375 c 1.5125,-0.22913 3.9875,-0.22913 5.5,0 1.5125,0.22912 0.275,0.41659 -2.75,0.41659 -3.025,0 -4.2625,-0.18747 -2.75,-0.41659 z m 72.01903,0.0233 c 0.97297,-0.25354 2.32297,-0.23687 3,0.037 0.67703,0.27393 -0.11903,0.48137 -1.76903,0.46099 -1.65,-0.0204 -2.20394,-0.2445 -1.23097,-0.49804 z M 605.25,119.28375 c 1.5125,-0.22913 3.9875,-0.22913 5.5,0 1.5125,0.22912 0.275,0.41659 -2.75,0.41659 -3.025,0 -4.2625,-0.18747 -2.75,-0.41659 z m 464.0137,-0.001 c 1.5201,-0.22986 3.7701,-0.22371 5,0.0136 1.23,0.23736 -0.014,0.42542 -2.7637,0.41792 -2.75,-0.008 -3.7563,-0.20172 -2.2363,-0.43157 z M 87,115.62244 c 0,-0.20765 0.7875,-0.99515 1.75,-1.75 1.586056,-1.24387 1.621426,-1.2085 0.377555,0.37756 C 87.821186,115.91575 87,116.44548 87,115.62244 Z m 166.25,-13.31177 c 0.9625,-0.25152 2.5375,-0.25152 3.5,0 0.9625,0.25153 0.175,0.45733 -1.75,0.45733 -1.925,0 -2.7125,-0.2058 -1.75,-0.45733 z M 235.29966,84 c 0,-3.025 0.18747,-4.2625 0.41659,-2.75 0.22913,1.5125 0.22913,3.9875 0,5.5 -0.22912,1.5125 -0.41659,0.275 -0.41659,-2.75 z"
         id="path6069" />
      <path
         style="fill:#8fb1c7"
         d="m 1022.4461,303.5 c 4e-4,-17.6 0.1365,-24.65916 0.3024,-15.68703 0.1659,8.97214 0.1656,23.37214 -7e-4,32 -0.1663,8.62787 -0.3021,1.28703 -0.3017,-16.31297 z M 131.8125,292.31689 c 0.72187,-0.28887 1.58437,-0.25335 1.91667,0.0789 0.33229,0.33229 -0.25834,0.56864 -1.3125,0.52522 -1.16495,-0.048 -1.4019,-0.28494 -0.60417,-0.60416 z M 549,285.62244 c 0,-0.20765 0.7875,-0.99515 1.75,-1.75 1.58606,-1.24387 1.62143,-1.2085 0.37756,0.37756 C 549.82119,285.91575 549,286.44548 549,285.62244 Z m 108,0 c 0,-0.20765 0.7875,-0.99515 1.75,-1.75 1.58606,-1.24387 1.62143,-1.2085 0.37756,0.37756 C 657.82119,285.91575 657,286.44548 657,285.62244 Z M 474.47459,210 c 0,-40.425 0.12376,-56.9625 0.27503,-36.75 0.15126,20.2125 0.15126,53.2875 0,73.5 -0.15127,20.2125 -0.27503,3.675 -0.27503,-36.75 z m 342.9625,64.75 -2.93709,-3.25 3.25,2.93709 c 1.7875,1.6154 3.25,3.0779 3.25,3.25 0,0.77256 -0.82513,0.0924 -3.56291,-2.93709 z M 626.45891,230 c 0,-23.925 0.13052,-33.7125 0.29005,-21.75 0.15952,11.9625 0.15952,31.5375 0,43.5 -0.15953,11.9625 -0.29005,2.175 -0.29005,-21.75 z M 183,271.68709 c 0,-0.1721 1.4625,-1.6346 3.25,-3.25 l 3.25,-2.93709 -2.93709,3.25 C 183.82513,271.77946 183,272.45965 183,271.68709 Z M 236.47171,206 c 0,-36.025 0.12502,-50.7625 0.27781,-32.75 0.15279,18.0125 0.15279,47.4875 0,65.5 -0.15279,18.0125 -0.27781,3.275 -0.27781,-32.75 z m 158.34079,52.31689 c 0.72187,-0.28887 1.58438,-0.25335 1.91667,0.0789 0.33229,0.33229 -0.25834,0.56864 -1.3125,0.52522 -1.16495,-0.048 -1.4019,-0.28494 -0.60417,-0.60416 z m 479,0 c 0.72187,-0.28887 1.58438,-0.25335 1.91667,0.0789 0.33229,0.33229 -0.25834,0.56864 -1.3125,0.52522 -1.16495,-0.048 -1.4019,-0.28494 -0.60417,-0.60416 z m 197,0 c 0.7219,-0.28887 1.5844,-0.25335 1.9167,0.0789 0.3323,0.33229 -0.2584,0.56864 -1.3125,0.52522 -1.165,-0.048 -1.4019,-0.28494 -0.6042,-0.60416 z M 893,251.62244 c 0,-0.20765 0.7875,-0.99515 1.75,-1.75 1.58606,-1.24387 1.62143,-1.2085 0.37756,0.37756 C 893.82119,251.91575 893,252.44548 893,251.62244 Z M 798.45932,182.5 c 2.3e-4,-24.2 0.13067,-33.95691 0.28986,-21.68203 0.1592,12.27489 0.15901,32.07489 -4.1e-4,44 -0.15943,11.92512 -0.28968,1.88203 -0.28945,-22.31797 z m -596.38037,37.91667 c 0.048,-1.16495 0.28494,-1.4019 0.60416,-0.60417 0.28887,0.72187 0.25335,1.58437 -0.0789,1.91667 -0.3323,0.33229 -0.56864,-0.25834 -0.52522,-1.3125 z M 157.87244,212.25 c -1.24387,-1.58606 -1.2085,-1.62143 0.37756,-0.37756 0.9625,0.75485 1.75,1.54235 1.75,1.75 0,0.82304 -0.82119,0.29331 -2.12756,-1.37244 z m 280.20651,-1.83333 c 0.048,-1.16495 0.28494,-1.4019 0.60416,-0.60417 0.28887,0.72187 0.25335,1.58437 -0.0789,1.91667 -0.33229,0.33229 -0.56864,-0.25834 -0.52522,-1.3125 z M 1112.3201,206 c 0,-3.575 0.1815,-5.0375 0.4033,-3.25 0.2218,1.7875 0.2218,4.7125 0,6.5 -0.2218,1.7875 -0.4033,0.325 -0.4033,-3.25 z m 35.9321,0.5 c 0.011,-2.2 0.2159,-2.98225 0.4551,-1.73834 0.2392,1.24391 0.2301,3.04391 -0.02,4 -0.2503,0.95609 -0.446,-0.0617 -0.4349,-2.26166 z M 438.15789,202 c 0,-1.375 0.22698,-1.9375 0.50439,-1.25 0.27741,0.6875 0.27741,1.8125 0,2.5 -0.27741,0.6875 -0.50439,0.125 -0.50439,-1.25 z M 187.43709,185.75 184.5,182.5 l 3.25,2.93709 c 3.02946,2.73778 3.70965,3.56291 2.93709,3.56291 -0.1721,0 -1.6346,-1.4625 -3.25,-3.25 z m 475.64186,-5.33333 c 0.048,-1.16495 0.28494,-1.4019 0.60416,-0.60417 0.28887,0.72187 0.25335,1.58437 -0.0789,1.91667 -0.33229,0.33229 -0.56864,-0.25834 -0.52522,-1.3125 z M 1096.9243,166.25 1094.5,163.5 l 2.75,2.42431 c 1.5125,1.33338 2.75,2.57088 2.75,2.75 0,0.78428 -0.8098,0.14598 -3.0757,-2.42431 z m -74.8454,-24.83333 c 0.048,-1.16495 0.285,-1.4019 0.6042,-0.60417 0.2889,0.72187 0.2534,1.58437 -0.079,1.91667 -0.3323,0.33229 -0.5687,-0.25834 -0.5253,-1.3125 z M 560,141.68709 c 0,-0.1721 1.4625,-1.6346 3.25,-3.25 l 3.25,-2.93709 -2.93709,3.25 C 560.82513,141.77946 560,142.45965 560,141.68709 Z M 81.194949,130.5 c 0.02038,-1.65 0.244498,-2.20394 0.498042,-1.23097 0.253543,0.97297 0.236869,2.32297 -0.03705,3 C 81.382014,132.94606 81.174569,132.15 81.194949,130.5 Z M 522,129.62244 c 0,-0.20765 0.7875,-0.99515 1.75,-1.75 1.58606,-1.24387 1.62143,-1.2085 0.37756,0.37756 C 522.82119,129.91575 522,130.44548 522,129.62244 Z M 549.40499,127.75 547.5,125.5 l 2.25,1.90499 c 2.11444,1.79022 2.70524,2.59501 1.90499,2.59501 -0.18976,0 -1.20226,-1.0125 -2.25,-2.25 z M 191.5,119 c 0.99549,-1.1 2.03498,-2 2.30998,-2 0.275,0 -0.31449,0.9 -1.30998,2 -0.99549,1.1 -2.03498,2 -2.30998,2 -0.275,0 0.31449,-0.9 1.30998,-2 z"
         id="path6067" />
      <path
         style="fill:#6998b7"
         d="m 454.5,330 c 0.99549,-1.1 2.03498,-2 2.30998,-2 0.275,0 -0.31449,0.9 -1.30998,2 -0.99549,1.1 -2.03498,2 -2.30998,2 -0.275,0 0.31449,-0.9 1.30998,-2 z M 111.8125,292.31689 c 0.72187,-0.28887 1.58437,-0.25335 1.91667,0.0789 0.33229,0.33229 -0.25834,0.56864 -1.3125,0.52522 -1.16495,-0.048 -1.4019,-0.28494 -0.60417,-0.60416 z m 267,0 c 0.72187,-0.28887 1.58438,-0.25335 1.91667,0.0789 0.33229,0.33229 -0.25834,0.56864 -1.3125,0.52522 -1.16495,-0.048 -1.4019,-0.28494 -0.60417,-0.60416 z m 482,0 c 0.72187,-0.28887 1.58438,-0.25335 1.91667,0.0789 0.33229,0.33229 -0.25834,0.56864 -1.3125,0.52522 -1.16495,-0.048 -1.4019,-0.28494 -0.60417,-0.60416 z m 205,0 c 0.7219,-0.28887 1.5844,-0.25335 1.9167,0.0789 0.3323,0.33229 -0.2584,0.56864 -1.3125,0.52522 -1.165,-0.048 -1.4019,-0.28494 -0.6042,-0.60416 z M 267,285.62244 c 0,-0.20765 0.7875,-0.99515 1.75,-1.75 1.58606,-1.24387 1.62143,-1.2085 0.37756,0.37756 C 267.82119,285.91575 267,286.44548 267,285.62244 Z M 555.45891,232 c 0,-23.925 0.13052,-33.7125 0.29005,-21.75 0.15952,11.9625 0.15952,31.5375 0,43.5 -0.15953,11.9625 -0.29005,2.175 -0.29005,-21.75 z M 1120,274.68709 c 0,-0.1721 1.4625,-1.6346 3.25,-3.25 l 3.25,-2.93709 -2.9371,3.25 c -2.7378,3.02946 -3.5629,3.70965 -3.5629,2.93709 z M 518.47211,206 c 0,-36.575 0.12484,-51.5375 0.27742,-33.25 0.15259,18.2875 0.15259,48.2125 0,66.5 -0.15258,18.2875 -0.27742,3.325 -0.27742,-33.25 z M 41.078947,251.41667 c 0.04798,-1.16495 0.284941,-1.4019 0.604167,-0.60417 0.288871,0.72187 0.253344,1.58437 -0.07895,1.91667 -0.332292,0.33229 -0.568641,-0.25834 -0.52522,-1.3125 z M 1096,247.62244 c 0,-0.20765 0.7875,-0.99515 1.75,-1.75 1.5861,-1.24387 1.6214,-1.2085 0.3776,0.37756 -1.3064,1.66575 -2.1276,2.19548 -2.1276,1.37244 z M 165.07895,231.41667 c 0.048,-1.16495 0.28494,-1.4019 0.60416,-0.60417 0.28887,0.72187 0.25335,1.58437 -0.0789,1.91667 -0.3323,0.33229 -0.56864,-0.25834 -0.52522,-1.3125 z M 202.15789,231 c 0,-1.375 0.22698,-1.9375 0.50439,-1.25 0.27741,0.6875 0.27741,1.8125 0,2.5 -0.27741,0.6875 -0.50439,0.125 -0.50439,-1.25 z m 0,-7 c 0,-1.375 0.22698,-1.9375 0.50439,-1.25 0.27741,0.6875 0.27741,1.8125 0,2.5 -0.27741,0.6875 -0.50439,0.125 -0.50439,-1.25 z m 235.92106,-10.58333 c 0.048,-1.16495 0.28494,-1.4019 0.60416,-0.60417 0.28887,0.72187 0.25335,1.58437 -0.0789,1.91667 -0.33229,0.33229 -0.56864,-0.25834 -0.52522,-1.3125 z m -130,-15 c 0.048,-1.16495 0.28494,-1.4019 0.60416,-0.60417 0.28887,0.72187 0.25335,1.58437 -0.0789,1.91667 -0.33229,0.33229 -0.56864,-0.25834 -0.52522,-1.3125 z m 355,-15 c 0.048,-1.16495 0.28494,-1.4019 0.60416,-0.60417 0.28887,0.72187 0.25335,1.58437 -0.0789,1.91667 -0.33229,0.33229 -0.56864,-0.25834 -0.52522,-1.3125 z M 60.404988,173.75 58.5,171.5 l 2.25,1.90499 C 62.864445,175.19521 63.455241,176 62.654988,176 c -0.189757,0 -1.202257,-1.0125 -2.25,-2.25 z m 363.000002,-7 -1.90499,-2.25 2.25,1.90499 c 2.11444,1.79022 2.70524,2.59501 1.90499,2.59501 -0.18976,0 -1.20226,-1.0125 -2.25,-2.25 z m 193.46745,-5.5 c -1.24387,-1.58606 -1.2085,-1.62143 0.37756,-0.37756 1.66575,1.30637 2.19548,2.12756 1.37244,2.12756 -0.20765,0 -0.99515,-0.7875 -1.75,-1.75 z M 555,143.5 c 0,-1.925 0.17577,-3.5 0.39059,-3.5 0.21483,0 0.57447,1.575 0.7992,3.5 0.22474,1.925 0.049,3.5 -0.39059,3.5 C 555.35964,147 555,145.425 555,143.5 Z m 434,-13.87756 c 0,-0.20765 0.7875,-0.99515 1.75,-1.75 1.58606,-1.24387 1.62143,-1.2085 0.37756,0.37756 C 989.82119,129.91575 989,130.44548 989,129.62244 Z M 197.19495,106.5 c 0.0204,-1.65 0.2445,-2.20394 0.49804,-1.23097 0.25354,0.97297 0.23687,2.32297 -0.0371,3 -0.27393,0.67703 -0.48137,-0.11903 -0.46099,-1.76903 z M 129.8125,68.316886 c 0.72187,-0.288871 1.58437,-0.253344 1.91667,0.07895 0.33229,0.332292 -0.25834,0.568641 -1.3125,0.52522 -1.16495,-0.04798 -1.4019,-0.284941 -0.60417,-0.604167 z M 253.75,65.294267 c 1.2375,-0.238353 3.2625,-0.238353 4.5,0 1.2375,0.238353 0.225,0.433369 -2.25,0.433369 -2.475,0 -3.4875,-0.195016 -2.25,-0.433369 z"
         id="path6065" />
      <path
         style="fill:#5189ad"
         d="M 990.40499,346.75 988.5,344.5 l 2.25,1.90499 c 2.11444,1.79022 2.70524,2.59501 1.90499,2.59501 -0.18976,0 -1.20226,-1.0125 -2.25,-2.25 z m -659,-11 -1.90499,-2.25 2.25,1.90499 c 1.2375,1.04774 2.25,2.06024 2.25,2.25 0,0.80025 -0.80479,0.20945 -2.59501,-1.90499 z M 425,309.68709 c 0,-0.1721 1.4625,-1.6346 3.25,-3.25 l 3.25,-2.93709 -2.93709,3.25 C 425.82513,309.77946 425,310.45965 425,309.68709 Z m -310.1875,-17.3702 c 0.72187,-0.28887 1.58437,-0.25335 1.91667,0.0789 0.33229,0.33229 -0.25834,0.56864 -1.3125,0.52522 -1.16495,-0.048 -1.4019,-0.28494 -0.60417,-0.60416 z m 275,0 c 0.72187,-0.28887 1.58438,-0.25335 1.91667,0.0789 0.33229,0.33229 -0.25834,0.56864 -1.3125,0.52522 -1.16495,-0.048 -1.4019,-0.28494 -0.60417,-0.60416 z m 485,0 c 0.72187,-0.28887 1.58438,-0.25335 1.91667,0.0789 0.33229,0.33229 -0.25834,0.56864 -1.3125,0.52522 -1.16495,-0.048 -1.4019,-0.28494 -0.60417,-0.60416 z m 202,0 c 0.7219,-0.28887 1.5844,-0.25335 1.9167,0.0789 0.3323,0.33229 -0.2584,0.56864 -1.3125,0.52522 -1.165,-0.048 -1.4019,-0.28494 -0.6042,-0.60416 z m -822,-3 c 0.72187,-0.28887 1.58438,-0.25335 1.91667,0.0789 0.33229,0.33229 -0.25834,0.56864 -1.3125,0.52522 -1.16495,-0.048 -1.4019,-0.28494 -0.60417,-0.60416 z m 280.9375,0.0208 c 0.6875,-0.27741 1.8125,-0.27741 2.5,0 0.6875,0.27741 0.125,0.50439 -1.25,0.50439 -1.375,0 -1.9375,-0.22698 -1.25,-0.50439 z m 109.0625,-0.0208 c 0.72187,-0.28887 1.58438,-0.25335 1.91667,0.0789 0.33229,0.33229 -0.25834,0.56864 -1.3125,0.52522 -1.16495,-0.048 -1.4019,-0.28494 -0.60417,-0.60416 z M 241.40499,283.75 239.5,281.5 l 2.25,1.90499 c 2.11444,1.79022 2.70524,2.59501 1.90499,2.59501 -0.18976,0 -1.20226,-1.0125 -2.25,-2.25 z M 921.5,274 c 0.99549,-1.1 2.03498,-2 2.30998,-2 0.275,0 -0.31449,0.9 -1.30998,2 -0.99549,1.1 -2.03498,2 -2.30998,2 -0.275,0 0.31449,-0.9 1.30998,-2 z m -490,-1 c 0.99549,-1.1 2.03498,-2 2.30998,-2 0.275,0 -0.31449,0.9 -1.30998,2 -0.99549,1.1 -2.03498,2 -2.30998,2 -0.275,0 0.31449,-0.9 1.30998,-2 z m 592.3724,0.25 c -1.2438,-1.58606 -1.2085,-1.62143 0.3776,-0.37756 0.9625,0.75485 1.75,1.54235 1.75,1.75 0,0.82304 -0.8212,0.29331 -2.1276,-1.37244 z m -691.46741,-2.5 -1.90499,-2.25 2.25,1.90499 c 2.11444,1.79022 2.70524,2.59501 1.90499,2.59501 -0.18976,0 -1.20226,-1.0125 -2.25,-2.25 z M 663.45974,229 c 0,-24.475 0.13017,-34.4875 0.28926,-22.25 0.15909,12.2375 0.15909,32.2625 0,44.5 -0.15909,12.2375 -0.28926,2.225 -0.28926,-22.25 z M 49.872445,268.25 c -1.243871,-1.58606 -1.208501,-1.62143 0.377555,-0.37756 0.9625,0.75485 1.75,1.54235 1.75,1.75 0,0.82304 -0.821186,0.29331 -2.127555,-1.37244 z M 120.75,257.33772 c 0.6875,-0.27741 1.8125,-0.27741 2.5,0 0.6875,0.27741 0.125,0.50439 -1.25,0.50439 -1.375,0 -1.9375,-0.22698 -1.25,-0.50439 z M 422,247.62244 c 0,-0.20765 0.7875,-0.99515 1.75,-1.75 1.58606,-1.24387 1.62143,-1.2085 0.37756,0.37756 C 422.82119,247.91575 422,248.44548 422,247.62244 Z m -264,-2 c 0,-0.20765 0.7875,-0.99515 1.75,-1.75 1.58606,-1.24387 1.62143,-1.2085 0.37756,0.37756 C 158.82119,245.91575 158,246.44548 158,245.62244 Z m -113,-5 c 0,-0.20765 0.7875,-0.99515 1.75,-1.75 1.586056,-1.24387 1.621426,-1.2085 0.377555,0.37756 C 45.821186,240.91575 45,241.44548 45,240.62244 Z m 157.07895,-13.20577 c 0.048,-1.16495 0.28494,-1.4019 0.60416,-0.60417 0.28887,0.72187 0.25335,1.58437 -0.0789,1.91667 -0.3323,0.33229 -0.56864,-0.25834 -0.52522,-1.3125 z M 835.45804,181 c 0,-23.375 0.13089,-32.9375 0.29087,-21.25 0.15998,11.6875 0.15998,30.8125 0,42.5 -0.15998,11.6875 -0.29087,2.125 -0.29087,-21.25 z m -527.37909,31.41667 c 0.048,-1.16495 0.28494,-1.4019 0.60416,-0.60417 0.28887,0.72187 0.25335,1.58437 -0.0789,1.91667 -0.33229,0.33229 -0.56864,-0.25834 -0.52522,-1.3125 z m 35.116,-5.91667 c 0.0204,-1.65 0.2445,-2.20394 0.49804,-1.23097 0.25354,0.97297 0.23687,2.32297 -0.0371,3 -0.27393,0.67703 -0.48137,-0.11903 -0.46099,-1.76903 z M 1035,166.5 c 1.8658,-1.925 3.6173,-3.5 3.8923,-3.5 0.275,0 -1.0265,1.575 -2.8923,3.5 -1.8658,1.925 -3.6173,3.5 -3.8923,3.5 -0.275,0 1.0265,-1.575 2.8923,-3.5 z M 565.5,164 c 0.99549,-1.1 2.03498,-2 2.30998,-2 0.275,0 -0.31449,0.9 -1.30998,2 -0.99549,1.1 -2.03498,2 -2.30998,2 -0.275,0 0.31449,-0.9 1.30998,-2 z M 329,145.62244 c 0,-0.20765 0.7875,-0.99515 1.75,-1.75 1.58606,-1.24387 1.62143,-1.2085 0.37756,0.37756 C 329.82119,145.91575 329,146.44548 329,145.62244 Z m 793.9462,-4.37244 -3.4462,-3.75 3.75,3.44617 c 3.4904,3.20761 4.2098,4.05383 3.4462,4.05383 -0.1671,0 -1.8546,-1.6875 -3.75,-3.75 z M 1026,139.5 c 1.2917,-1.375 2.5736,-2.5 2.8486,-2.5 0.275,0 -0.5569,1.125 -1.8486,2.5 -1.2917,1.375 -2.5736,2.5 -2.8486,2.5 -0.275,0 0.5569,-1.125 1.8486,-2.5 z m -691,0.12244 c 0,-0.20765 0.7875,-0.99515 1.75,-1.75 1.58606,-1.24387 1.62143,-1.2085 0.37756,0.37756 C 335.82119,139.91575 335,140.44548 335,139.62244 Z M 429.87244,136.25 c -1.24387,-1.58606 -1.2085,-1.62143 0.37756,-0.37756 0.9625,0.75485 1.75,1.54235 1.75,1.75 0,0.82304 -0.82119,0.29331 -2.12756,-1.37244 z m 213,-6 c -1.24387,-1.58606 -1.2085,-1.62143 0.37756,-0.37756 1.66575,1.30637 2.19548,2.12756 1.37244,2.12756 -0.20765,0 -0.99515,-0.7875 -1.75,-1.75 z M 908.5,129 c 0.99549,-1.1 2.03498,-2 2.30998,-2 0.275,0 -0.31449,0.9 -1.30998,2 -0.99549,1.1 -2.03498,2 -2.30998,2 -0.275,0 0.31449,-0.9 1.30998,-2 z m 25.90499,-1.25 -1.90499,-2.25 2.25,1.90499 c 2.11444,1.79022 2.70524,2.59501 1.90499,2.59501 -0.18976,0 -1.20226,-1.0125 -2.25,-2.25 z M 441,126.62244 c 0,-0.20765 0.7875,-0.99515 1.75,-1.75 1.58606,-1.24387 1.62143,-1.2085 0.37756,0.37756 C 441.82119,126.91575 441,127.44548 441,126.62244 Z M 270,98.622445 c 0,-0.207656 0.7875,-0.995156 1.75,-1.75 1.58606,-1.243871 1.62143,-1.208501 0.37756,0.377555 C 270.82119,98.915748 270,99.445479 270,98.622445 Z M 61,90.5 C 62.865783,88.575 64.617334,87 64.892334,87 65.167334,87 63.865783,88.575 62,90.5 60.134217,92.425 58.382666,94 58.107666,94 57.832666,94 59.134217,92.425 61,90.5 Z M 190.40499,91.75 188.5,89.5 l 2.25,1.904988 C 192.86444,93.195206 193.45524,94 192.65499,94 c -0.18976,0 -1.20226,-1.0125 -2.25,-2.25 z M 116.8125,68.316886 c 0.72187,-0.288871 1.58437,-0.253344 1.91667,0.07895 0.33229,0.332292 -0.25834,0.568641 -1.3125,0.52522 -1.16495,-0.04798 -1.4019,-0.284941 -0.60417,-0.604167 z"
         id="path6063" />
      <path
         style="fill:#3f7da5"
         d="m 373,350.11335 c -13.74419,-2.41345 -25.54458,-5.43165 -31.86229,-8.14946 -6.26515,-2.69519 -12.77398,-9.50812 -13.67568,-14.31462 -1.45067,-7.7327 4.72498,-18.23577 12.16639,-20.69165 4.29518,-1.41754 7.65488,-0.83091 17.90802,3.12686 14.5637,5.62167 24.99092,7.91167 35.96356,7.89822 20.70859,-0.0254 33.13025,-5.65887 40.05075,-18.16385 2.79039,-5.04208 2.96178,-6.03753 3.29368,-19.13001 l 0.35013,-13.81116 -4.76919,5.09865 c -6.7108,7.17439 -17.22307,13.84619 -27.30762,17.33128 -7.6116,2.63047 -9.90203,2.96998 -19.61775,2.90797 -13.48272,-0.0861 -23.29225,-2.44548 -34.5774,-8.31666 -14.03635,-7.30251 -27.72242,-22.15271 -34.46304,-37.39445 -10.16153,-22.97701 -10.57296,-54.09028 -1.02778,-77.72176 8.90424,-22.0447 27.2494,-39.04868 49.56822,-45.9444 6.27024,-1.93728 9.63159,-2.30863 20.5,-2.26474 11.29999,0.0456 14.04616,0.39922 21,2.70401 9.20405,3.05059 17.22087,7.62065 24.94686,14.22117 l 5.41222,4.6238 0.70031,-4.81127 c 0.92343,-6.3441 2.61717,-9.48693 7.1074,-13.18815 9.15072,-7.5428 23.61,-3.8214 27.80156,7.15531 1.4439,3.78124 1.57873,12.51363 1.29271,83.72156 -0.28881,71.90121 -0.48525,80.07349 -2.05523,85.5 -5.36813,18.55455 -16.95597,32.58842 -33.74905,40.87299 -19.04379,9.39492 -42.9276,12.60864 -64.95678,8.74036 z m 29.20078,-92.22205 c 21.67015,-4.53384 36.72197,-25.80557 36.78186,-51.98134 0.0206,-9.01583 -2.81656,-20.96022 -6.70663,-28.23448 -4.16341,-7.78541 -12.99473,-16.17799 -20.9744,-19.93237 -6.03901,-2.84131 -7.99322,-3.24249 -17.42954,-3.57806 -16.75652,-0.59588 -25.7688,2.80233 -36.0631,13.59814 -9.50564,9.96871 -14.08709,22.54626 -14.07468,38.63947 0.0273,35.36241 26.04215,58.27246 58.46649,51.48864 z m 594.28063,92.77055 c -3.75535,-1.70525 -9.20009,-7.79653 -10.21696,-11.43019 -0.9987,-3.56872 -0.9987,-199.8946 0,-203.46332 2.0521,-7.33292 11.90315,-13.54571 19.79895,-12.48666 8.4527,1.13375 15.9366,9.41174 15.9366,17.62768 v 3.27791 l 6.9721,-6.45512 c 7.172,-6.64015 16.3778,-12.07251 26.0279,-15.35902 8.7644,-2.9849 27.9687,-2.51227 38.5,0.94751 25.0075,8.21553 44.0555,29.38135 51.485,57.20924 3.014,11.28903 3.7653,31.03162 1.6427,43.1651 -3.4401,19.66479 -11.1831,35.03435 -24.0836,47.80502 -12.5587,12.43241 -24.4528,18.31237 -41.2941,20.41425 -8.1561,1.01791 -19.9111,0.22647 -26.7607,-1.80174 -10.0148,-2.96549 -24.4482,-10.93816 -28.8943,-15.96059 -1.0477,-1.18356 -2.2852,-2.15192 -2.75,-2.15192 -0.4647,0 -0.8549,14.7375 -0.867,32.75 -0.02,30.00969 -0.1809,33.10008 -1.9215,36.93386 -3.6529,8.04585 -15.6045,12.59731 -23.57509,8.97799 z m 88.90449,-95.46166 c 21.0585,-9.85447 32.3576,-38.33345 25.636,-64.61475 -3.8101,-14.89716 -12.9401,-26.95836 -24.8422,-32.81774 -6.4247,-3.16287 -7.0393,-3.2677 -19.1587,-3.2677 -12.019,0 -12.7926,0.12863 -19.2948,3.20861 -11.949,5.65998 -21.5312,17.76672 -25.195,31.83294 -2.0165,7.74184 -2.0081,25.20119 0.016,32.99835 3.6517,14.06758 12.0135,25.28229 23.36,31.32988 8.0197,4.27447 12.0593,5.10146 23.205,4.7505 8.3006,-0.26138 10.5209,-0.72799 16.2738,-3.42009 z m -977.08019,36.7547 C 88.42264,290.07463 70.958505,283.82932 57.5,273.7864 45.902719,265.13235 41.99736,259.46278 42.003738,251.28984 c 0.0082,-10.51614 10.624303,-19.0679 20.875652,-16.81633 1.669657,0.36672 6.317336,3.10173 10.328175,6.0778 14.295659,10.60747 25.157853,15.01468 40.438455,16.40744 16.4321,1.49771 30.02979,-1.22336 40.26365,-8.05727 8.42369,-5.62512 11.61634,-11.14277 11.51548,-19.90148 -0.12291,-10.67445 -5.14251,-17.78265 -16.68959,-23.634 C 140.23533,201.05861 133.3904,199.08636 116,195.9338 94.55345,192.04595 82.203046,188.09952 72.181157,181.932 54.014707,170.75227 45.587515,154.94656 45.558714,132 45.53471,112.87478 50.72611,100.8302 64.384008,88.32337 87.14677,67.479029 129.43298,62.465302 164.82026,76.414999 c 14.43272,5.689392 27.22891,14.954153 30.6701,22.205925 4.10009,8.640316 -0.202,19.594586 -9.2709,23.606196 -5.92923,2.62278 -9.53263,1.93974 -17.13183,-3.24743 -7.41977,-5.06469 -19.60804,-10.32321 -30.42789,-13.12785 -11.0279,-2.85857 -30.17363,-2.30405 -39.15974,1.13418 -7.91954,3.03014 -15.802433,10.69102 -17.507047,17.01398 -2.669462,9.90189 0.778304,20.34225 8.564177,25.93364 7.794669,5.59771 16.73857,8.47677 43.65091,14.0513 42.58397,8.8207 60.38676,21.22897 66.2713,46.19011 1.76802,7.4996 1.97508,23.57856 0.39955,31.02573 -5.03984,23.82208 -27.44283,42.88876 -57.87889,49.25942 -9.03204,1.89052 -23.78673,2.52618 -34.69429,1.49469 z M 861,292.35406 c -32.33498,-2.7423 -53.78289,-21.161 -60.05932,-51.57679 -1.7256,-8.36229 -1.9157,-13.9062 -1.92754,-56.21155 -0.0128,-45.79783 0.0382,-47.04037 2.10801,-51.31598 5.11455,-10.56524 18.80513,-13.23132 28.04023,-5.4605 5.79025,4.87218 5.83785,5.28278 5.84682,50.42864 0.011,55.40341 1.04738,63.10574 9.68375,71.97032 6.26761,6.43323 12.00507,8.31415 25.30805,8.2968 9.84026,-0.0128 12.22163,-0.3453 16.5,-2.30361 C 892.76624,253.31318 896.54589,249.76304 899.46887,244 903.6521,235.75221 904,231.15311 904,184.1 c 0,-30.69515 0.35659,-45.87185 1.13253,-48.20078 1.63579,-4.90974 7.60553,-10.7516 12.27065,-12.00779 6.14458,-1.65456 12.13361,-0.30471 16.61626,3.7451 7.23967,6.54061 7.18243,6.0273 6.74188,60.45818 -0.37096,45.83146 -0.50647,48.82006 -2.54855,56.20577 -6.61746,23.93369 -23.26864,40.28492 -46.486,45.64861 -8.46877,1.95646 -22.79432,3.07772 -30.72677,2.40497 z m -614.5,-5.16778 c -4.19079,-2.6824 -7.02821,-6.10486 -8.36148,-10.0855 C 237.33162,274.69166 237,253.88462 237,205.6665 c 0,-67.2865 0.0233,-68.08326 2.12115,-72.41676 5.0873,-10.50897 18.80519,-13.23127 27.94017,-5.54469 6.74549,5.67596 6.40633,1.94172 6.74789,74.29495 0.17006,36.025 0.028,67.83979 -0.31566,70.69954 -0.67849,5.64583 -3.40276,10.438 -7.77552,13.67763 -4.03226,2.98737 -15.08768,3.45281 -19.21803,0.80911 z m 281.64924,0.11725 c -1.84292,-0.90802 -4.54292,-3.45241 -6,-5.65421 L 519.5,277.64606 v -71.65087 -71.65087 l 2.88391,-3.78101 c 5.32667,-6.98363 14.28333,-9.25991 22.23218,-5.65019 6.39372,2.9035 9.72134,8.02234 10.21066,15.70692 0.22343,3.50898 0.55704,6.37996 0.74136,6.37996 0.18431,0 3.62629,-3.2625 7.64884,-7.25 8.39793,-8.32477 17.25741,-13.85551 27.28305,-17.03208 9.90899,-3.13962 27.91204,-3.11063 38.14576,0.0614 16.07167,4.98158 26.15141,16.93556 31.54471,37.41018 2.09605,7.95727 2.20464,10.59416 2.55486,62.04228 0.40823,59.96751 0.59777,58.11651 -6.5061,63.5349 -5.05124,3.85277 -14.42941,4.37845 -20.20472,1.13254 -2.27333,-1.27768 -5.12359,-3.9152 -6.33392,-5.86115 -2.16904,-3.48736 -2.20849,-4.24778 -2.75191,-53.03809 -0.51924,-46.6188 -0.67079,-49.83258 -2.60376,-55.21387 -2.67432,-7.44519 -6.30679,-12.09145 -12.12881,-15.51383 C 607.71535,154.62659 606.90639,154.5 594.5,154.5 c -11.97174,0 -13.44673,0.20944 -18.64796,2.64796 -10.40889,4.88005 -17.55878,14.40449 -19.76258,26.32591 C 555.40892,187.15529 555,205.94454 555,233.53362 v 44.1663 l -2.88378,3.98095 c -1.58609,2.18952 -4.46659,4.73204 -6.40113,5.65004 -4.48009,2.12594 -13.2231,2.11231 -17.56585,-0.0274 z M 245.9416,101.10965 C 238.15861,98.5719 236,94.856907 236,84 c 0,-13.834423 4.5174,-17.986171 19.5,-17.921596 15.51389,0.06686 19.03123,3.436671 18.9544,18.159339 -0.0506,9.702253 -1.51848,12.972996 -7.04433,15.696559 -3.32632,1.639468 -17.64149,2.423188 -21.46847,1.175348 z"
         id="path6061" />
    </g>
  </g>
</svg>
